<svg enable-background="new 0 0 140 140" height="512" viewBox="0 0 140 140" width="512" xmlns="http://www.w3.org/2000/svg"><circle cx="70" cy="70" fill="#fed35b" r="64"/><path d="m99.2425613 48.4101791c-3.3300171-3.1101074-7.1699829-5.710083-11.3699951-7.630127-4.2000122-1.9399414-8.7700195-3.1999512-13.5700073-3.6799316l-3.210022-3.3599854c-.0299683-.0300293-.0499878-.0599365-.0799561-.0799561l-.0400391-.0300293c-.2199707-.1900635-.5-.3100586-.8099976-.3100586-.6900024 0-1.25.5600586-1.25 1.25v2.3200684c-18.7799644.4599609-34.5700035 13.0100098-39.8499718 30.1699219-.1500244.4699707.0100098.9300537.3200073 1.2299805l26.8499756 26.8500977v3.9499512c0 .5200195.0599976 1.0300293.1600342 1.5300293.0499878.25.1099854.4899902.1900024.7299805.1099854.3499756.25.6799316.4099731 1.0100098.0900269.1999512.2000122.3999023.3099976.5899658.5.8399658 1.1500244 1.5799561 1.9299927 2.1700439l26.8421593 26.8421707c23.7612305-6.1468582 42.1533279-25.6035233 46.7812576-49.9387283l-31.5233839-31.5234375c-.6700439-.7200928-1.3699951-1.4100342-2.0900269-2.0899659z" opacity=".1"/><path d="m71.4193802 88.0909653v-53.5205078c0-.6917725-.5606689-1.2525635-1.2525024-1.2525635s-1.2525635.560791-1.2525635 1.2525635v53.5205078z" fill="#ededed"/><path d="m68.9142685 87.7833786v11.3070755c0 2.8046722-2.2819366 5.0867538-5.0864716 5.0867538-2.8046036 0-5.0865402-2.2820816-5.0865402-5.0867538v-4.6785049c0-.6916351-.5607147-1.2523499-1.2525597-1.2523499s-1.2525597.5607147-1.2525597 1.2523499v4.6785049c0 4.1862946 3.4053688 7.5914536 7.5916595 7.5914536 4.1862259 0 7.5915909-3.405159 7.5915909-7.5914536v-11.3070755z" fill="#293b44"/><path d="m109.4792023 68.5959244c-1.4481888-.384491-3.0773621-.5993805-4.7969971-.5993805-3.020813 0-5.7587128.6789322-7.7159576 1.7534027-.2489395.1358948-.5091324.2148972-.7693253.2375412-.384697.034256-.7806473-.0452957-1.1313705-.2375412-1.9573212-1.0744705-4.6952133-1.7534027-7.7159576-1.7534027-3.0320663 0-5.7700348.6789322-7.7272797 1.7534027-.2828445.1585464-.5883331.2375412-.8937607.2491455-.3394623.0110474-.6901855-.0789948-1.0069351-.2491455-1.9572525-1.0744705-4.6952209-1.7534027-7.7159576-1.7534027-3.0320663 0-5.7699661.6789322-7.7272835 1.7534027-.3167458.1701508-.667469.2601929-1.0068665.2491455-.3054924-.0116043-.6109848-.0905991-.8938255-.2491455-1.9572525-1.0744705-4.6951485-1.7534027-7.7159576-1.7534027-3.0320663 0-5.7586403.6789322-7.7272148 1.765007-.3507233.1806412-.7467422.2601929-1.1201134.2259369-.2601929-.022644-.5317116-.0905991-.7693253-.2259369-1.9685745-1.0860748-4.7064705-1.765007-7.727211-1.765007-1.7310333 0-3.3602085.2148895-4.7970715.5993805-.9276638.2375488-1.7422867-.6336288-1.459444-1.5385056 5.3287811-17.3097534 21.3489609-29.9360313 40.3559799-30.185173.1923828-.0110512.384697-.0110512.5883331-.0110512s.3959503 0 .5883331.0110512c18.9956894.2491417 35.0159454 12.8754196 40.3446579 30.185173.282837.9164734-.5317154 1.7876511-1.4594497 1.5385056z" fill="#cd5248"/><path d="m96.1969223 69.9874878c-.384697.034256-.7806473-.0452957-1.1313705-.2375412-1.9573212-1.0744705-4.6952133-1.7534027-7.7159576-1.7534027-3.0320663 0-5.7700348.6789322-7.7272797 1.7534027-.2828445.1585464-.5883331.2375412-.8937607.2491455-.3394623.0110474-.6901855-.0789948-1.0069351-.2491455-1.9572525-1.0744705-4.6952209-1.7534027-7.7159576-1.7534027-3.0320663 0-5.7699661.6789322-7.7272835 1.7534027-.3167458.1701508-.667469.2601929-1.0068665.2491455-.3054924-.0116043-.6109848-.0905991-.8938255-.2491455-1.9572525-1.0744705-4.6951485-1.7534027-7.7159576-1.7534027-3.0320663 0-5.7586403.6789322-7.7272148 1.765007-.3507233.1806412-.7467422.2601929-1.1201134.2259369 4.084301-19.085804 13.9724693-32.6622543 25.6029282-33.115242.1923828-.0110512.384697-.0110512.5883331-.0110512s.3959503 0 .5883331.0110512c11.6191329.4529877 21.5073699 14.029438 25.6029281 33.115242z" fill="#de594e"/><path d="m70.005661 36.8611946c-3.9598007 0-7.3425865 13.7233963-8.7341499 33.1378975.3393974.0110474.6901207-.0789948 1.0068665-.2491455 1.9573174-1.0744705 4.6952171-1.7534027 7.7272835-1.7534027 3.0207367 0 5.7587051.6789322 7.7159576 1.7534027.3167496.1701508.6674728.2601929 1.0069351.2491455-1.3916321-19.4145012-4.7744217-33.1378975-8.7228928-33.1378975z" fill="#cd5248"/></svg>